<svg width="68" height="63" viewBox="0 0 68 63" fill="none" xmlns="http://www.w3.org/2000/svg">
<path d="M32.8896 2.01074L60.1904 48.5645L61.9141 53.7373L15.6484 54.5996L4.72852 56.6104L1.56738 52.5879L21.9697 15.8047L30.3037 1.14844L32.8896 2.01074ZM36.7822 15.3213C34.4728 11.3217 28.7001 11.3218 26.3906 15.3213L10.6514 42.582C8.34214 46.582 11.2289 51.582 15.8477 51.582H47.3252C51.9438 51.5819 54.8306 46.5819 52.5215 42.582L36.7822 15.3213Z" fill="white"/>
<path d="M31.4457 0C31.7973 0 32.0869 0.175264 32.2631 0.427734C32.6169 0.409446 32.9795 0.574231 33.182 0.924805L45.9027 22.958C46.0353 23.1874 46.2532 23.3552 46.5092 23.4238L56.015 25.9707C56.271 26.0394 56.4889 26.2071 56.6215 26.4365L67.5736 45.4062C67.7522 45.7157 67.7522 46.0968 67.5736 46.4062L63.014 54.3037C62.8118 54.6539 62.4505 54.8175 62.097 54.7998C61.9211 55.0534 61.6303 55.2295 61.2777 55.2295H35.8373C35.5721 55.2295 35.3178 55.335 35.1302 55.5225L28.1722 62.4805C27.9847 62.668 27.7295 62.7734 27.4642 62.7734H5.56091C5.20366 62.7734 4.87334 62.5828 4.6947 62.2734L0.134156 54.376C-0.0424692 54.0701 -0.0342895 53.7297 0.098023 53.4502C-0.034116 53.1709 -0.0421497 52.8311 0.134156 52.5254L12.8549 30.4922C12.9874 30.2625 13.0241 29.9895 12.9554 29.7334L10.4076 20.2285C10.339 19.9723 10.3756 19.6994 10.5082 19.4697L21.4603 0.5C21.639 0.190665 21.9693 0 22.3265 0H31.4457ZM2.64978 52.876H60.4574L31.5531 2.8125L2.64978 52.876Z" fill="white"/>
</svg>
