<svg width="32" height="32" viewBox="0 0 32 32" fill="none" xmlns="http://www.w3.org/2000/svg">
<circle cx="16" cy="16" r="16" fill="black"/>
<path d="M15.9551 6.60866L24.2184 20.6993L24.7401 22.265L10.7366 22.526L7.43141 23.1346L6.47461 21.9171L12.6499 10.7837L15.1724 6.34766L15.9551 6.60866ZM17.1333 10.6374C16.4343 9.42685 14.687 9.42687 13.988 10.6374L9.22411 18.8886C8.52516 20.0993 9.39892 21.6127 10.7969 21.6127H20.3244C21.7223 21.6127 22.5961 20.0993 21.8972 18.8886L17.1333 10.6374Z" fill="white"/>
<path fill-rule="evenodd" clip-rule="evenodd" d="M15.5178 6C15.6243 6 15.7119 6.05305 15.7652 6.12946C15.8724 6.12393 15.9821 6.17381 16.0434 6.27992L19.8936 12.9488C19.9338 13.0183 19.9997 13.069 20.0772 13.0898L22.9544 13.8607C23.0319 13.8815 23.0978 13.9322 23.1379 14.0017L26.4529 19.7434C26.507 19.837 26.507 19.9524 26.4529 20.046L25.0728 22.4364C25.0116 22.5424 24.9023 22.5919 24.7953 22.5866C24.742 22.6633 24.654 22.7166 24.5473 22.7166H16.8471C16.7668 22.7166 16.6898 22.7486 16.6331 22.8053L14.5271 24.9113C14.4703 24.9681 14.393 25 14.3128 25H7.68315C7.57502 25 7.47504 24.9423 7.42097 24.8487L6.04061 22.4583C5.98715 22.3657 5.98962 22.2627 6.02967 22.1781C5.98967 22.0935 5.98724 21.9907 6.04061 21.8982L9.89085 15.2292C9.93098 15.1597 9.94207 15.0771 9.9213 14.9996L9.15013 12.1227C9.12935 12.0451 9.14044 11.9625 9.18057 11.893L12.4955 6.15134C12.5496 6.05771 12.6496 6 12.7577 6H15.5178ZM6.80202 22.0043H24.299L15.5504 6.85128L6.80202 22.0043Z" fill="white"/>
</svg>
