<svg width="307" height="63" viewBox="0 0 307 63" fill="none" xmlns="http://www.w3.org/2000/svg">
<path d="M32.8896 2.01074L60.1904 48.5645L61.9141 53.7373L15.6484 54.5996L4.72852 56.6104L1.56738 52.5879L21.9697 15.8047L30.3037 1.14844L32.8896 2.01074ZM36.7822 15.3213C34.4728 11.3217 28.7001 11.3218 26.3906 15.3213L10.6514 42.582C8.34214 46.582 11.2289 51.582 15.8477 51.582H47.3252C51.9438 51.5819 54.8306 46.5819 52.5215 42.582L36.7822 15.3213Z" fill="black"/>
<path d="M31.4457 0C31.7973 0 32.0869 0.175264 32.2631 0.427734C32.6169 0.409446 32.9795 0.574231 33.182 0.924805L45.9027 22.958C46.0353 23.1874 46.2532 23.3552 46.5092 23.4238L56.015 25.9707C56.271 26.0394 56.4889 26.2071 56.6215 26.4365L67.5736 45.4062C67.7522 45.7157 67.7522 46.0968 67.5736 46.4062L63.014 54.3037C62.8118 54.6539 62.4505 54.8175 62.097 54.7998C61.9211 55.0534 61.6303 55.2295 61.2777 55.2295H35.8373C35.5721 55.2295 35.3178 55.335 35.1302 55.5225L28.1722 62.4805C27.9847 62.668 27.7295 62.7734 27.4642 62.7734H5.56091C5.20366 62.7734 4.87334 62.5828 4.6947 62.2734L0.134156 54.376C-0.0424692 54.0701 -0.0342895 53.7297 0.098023 53.4502C-0.034116 53.1709 -0.0421497 52.8311 0.134156 52.5254L12.8549 30.4922C12.9874 30.2625 13.0241 29.9895 12.9554 29.7334L10.4076 20.2285C10.339 19.9723 10.3756 19.6994 10.5082 19.4697L21.4603 0.5C21.639 0.190665 21.9693 0 22.3265 0H31.4457ZM2.64978 52.876H60.4574L31.5531 2.8125L2.64978 52.876Z" fill="black"/>
<path d="M78.56 20.68V17.08H99.88V20.68H91.2V46H87.28V20.68H78.56ZM105.737 46.48C101.537 46.48 99.0569 44.12 99.0569 40.56C99.0569 36.96 101.737 34.72 106.337 34.36L112.497 33.88V33.32C112.497 30.04 110.537 28.88 107.897 28.88C104.737 28.88 102.937 30.28 102.937 32.64H99.6569C99.6569 28.56 103.017 25.88 108.057 25.88C112.897 25.88 116.177 28.44 116.177 33.72V46H112.977L112.577 42.84C111.577 45.08 108.897 46.48 105.737 46.48ZM106.817 43.56C110.377 43.56 112.537 41.24 112.537 37.56V36.52L107.537 36.92C104.217 37.24 102.857 38.52 102.857 40.44C102.857 42.52 104.377 43.56 106.817 43.56ZM125.224 46H121.464V16.56H125.224V46ZM139.199 46.48C133.439 46.48 129.479 42.32 129.479 36.24C129.479 30.12 133.359 25.88 139.039 25.88C144.599 25.88 148.239 29.72 148.239 35.52V36.92L133.119 36.96C133.399 41.08 135.559 43.36 139.279 43.36C142.199 43.36 144.119 42.16 144.759 39.92H148.279C147.319 44.12 144.039 46.48 139.199 46.48ZM139.039 29.04C135.759 29.04 133.679 31 133.199 34.44H144.479C144.479 31.2 142.359 29.04 139.039 29.04ZM156.199 46H152.439V26.44H155.839L156.239 29.44C157.479 27.2 159.959 25.88 162.719 25.88C167.879 25.88 170.239 29.04 170.239 34.04V46H166.479V34.88C166.479 30.92 164.639 29.32 161.759 29.32C158.239 29.32 156.199 31.84 156.199 35.64V46ZM180.967 46H177.207V29.6H173.367V26.44H177.207V20.32H180.967V26.44H184.807V29.6H180.967V46ZM198.078 24.88C198.078 19.92 202.078 16.56 208.038 16.56C213.558 16.56 217.118 19.64 217.438 24.64H213.478C213.278 21.76 211.238 20.08 207.998 20.08C204.358 20.08 201.998 21.92 201.998 24.76C201.998 27.08 203.318 28.48 206.038 29.12L210.798 30.24C215.518 31.32 217.918 33.88 217.918 37.96C217.918 43.16 213.878 46.48 207.718 46.48C201.838 46.48 197.918 43.4 197.678 38.44H201.678C201.758 41.2 204.078 42.96 207.718 42.96C211.558 42.96 213.998 41.16 213.998 38.28C213.998 36 212.758 34.56 209.998 33.92L205.238 32.84C200.518 31.76 198.078 29.04 198.078 24.88ZM224.044 21.8C222.684 21.8 221.564 20.68 221.564 19.32C221.564 17.92 222.684 16.84 224.044 16.84C225.404 16.84 226.524 17.92 226.524 19.32C226.524 20.68 225.404 21.8 224.044 21.8ZM222.204 46V26.44H225.964V46H222.204ZM230.183 35.72C230.183 30.2 233.743 25.88 239.423 25.88C242.583 25.88 245.023 27.32 246.263 29.76L246.543 26.44H249.903V45.2C249.903 51.36 246.103 55.28 240.103 55.28C234.783 55.28 231.143 52.28 230.423 47.32H234.183C234.663 50.2 236.823 51.88 240.103 51.88C243.783 51.88 246.183 49.48 246.183 45.76V41.84C244.903 44.12 242.343 45.48 239.263 45.48C233.703 45.48 230.183 41.2 230.183 35.72ZM233.943 35.64C233.943 39.32 236.223 42.2 239.903 42.2C243.703 42.2 246.023 39.48 246.023 35.64C246.023 31.88 243.783 29.16 239.943 29.16C236.183 29.16 233.943 32.04 233.943 35.64ZM259.089 46H255.329V26.44H258.729L259.129 29.44C260.369 27.2 262.849 25.88 265.609 25.88C270.769 25.88 273.129 29.04 273.129 34.04V46H269.369V34.88C269.369 30.92 267.529 29.32 264.649 29.32C261.129 29.32 259.089 31.84 259.089 35.64V46ZM284.057 46.48C279.857 46.48 277.377 44.12 277.377 40.56C277.377 36.96 280.057 34.72 284.657 34.36L290.817 33.88V33.32C290.817 30.04 288.857 28.88 286.217 28.88C283.057 28.88 281.257 30.28 281.257 32.64H277.977C277.977 28.56 281.337 25.88 286.377 25.88C291.217 25.88 294.497 28.44 294.497 33.72V46H291.297L290.897 42.84C289.897 45.08 287.217 46.48 284.057 46.48ZM285.137 43.56C288.697 43.56 290.857 41.24 290.857 37.56V36.52L285.857 36.92C282.537 37.24 281.177 38.52 281.177 40.44C281.177 42.52 282.697 43.56 285.137 43.56ZM303.544 46H299.784V16.56H303.544V46Z" fill="black"/>
</svg>
