<svg width="315" height="63" viewBox="0 0 315 63" fill="none" xmlns="http://www.w3.org/2000/svg">
<path d="M32.8896 2.01074L60.1904 48.5645L61.9141 53.7373L15.6484 54.5996L4.72852 56.6104L1.56738 52.5879L21.9697 15.8047L30.3037 1.14844L32.8896 2.01074ZM36.7822 15.3213C34.4728 11.3217 28.7001 11.3218 26.3906 15.3213L10.6514 42.582C8.34214 46.582 11.2289 51.582 15.8477 51.582H47.3252C51.9438 51.5819 54.8306 46.5819 52.5215 42.582L36.7822 15.3213Z" fill="black"/>
<path d="M31.4457 0C31.7973 0 32.0869 0.175264 32.2631 0.427734C32.6169 0.409446 32.9795 0.574231 33.182 0.924805L45.9027 22.958C46.0353 23.1874 46.2532 23.3552 46.5092 23.4238L56.015 25.9707C56.271 26.0394 56.4889 26.2071 56.6215 26.4365L67.5736 45.4062C67.7522 45.7157 67.7522 46.0968 67.5736 46.4062L63.014 54.3037C62.8118 54.6539 62.4505 54.8175 62.097 54.7998C61.9211 55.0534 61.6303 55.2295 61.2777 55.2295H35.8373C35.5721 55.2295 35.3178 55.335 35.1302 55.5225L28.1722 62.4805C27.9847 62.668 27.7295 62.7734 27.4642 62.7734H5.56091C5.20366 62.7734 4.87334 62.5828 4.6947 62.2734L0.134156 54.376C-0.0424692 54.0701 -0.0342895 53.7297 0.098023 53.4502C-0.034116 53.1709 -0.0421497 52.8311 0.134156 52.5254L12.8549 30.4922C12.9874 30.2625 13.0241 29.9895 12.9554 29.7334L10.4076 20.2285C10.339 19.9723 10.3756 19.6994 10.5082 19.4697L21.4603 0.5C21.639 0.190665 21.9693 0 22.3265 0H31.4457ZM2.64978 52.876H60.4574L31.5531 2.8125L2.64978 52.876Z" fill="black"/>
<path d="M78.68 21.48V16.76H100.92V21.48H92.36V46H87.24V21.48H78.68ZM106.634 46.52C102.434 46.52 99.8744 44.08 99.8744 40.36C99.8744 36.72 102.514 34.44 107.194 34.08L113.114 33.64V33.2C113.114 30.52 111.514 29.44 109.034 29.44C106.154 29.44 104.554 30.64 104.554 32.72H100.394C100.394 28.44 103.914 25.64 109.274 25.64C114.594 25.64 117.874 28.52 117.874 34V46H113.594L113.234 43.08C112.394 45.12 109.714 46.52 106.634 46.52ZM108.234 42.84C111.234 42.84 113.154 41.04 113.154 38V36.96L109.034 37.28C105.994 37.56 104.834 38.56 104.834 40.16C104.834 41.96 106.034 42.84 108.234 42.84ZM127.588 46H122.748V16.24H127.588V46ZM141.548 46.52C135.668 46.52 131.548 42.24 131.548 36.12C131.548 29.92 135.588 25.64 141.388 25.64C147.308 25.64 151.068 29.6 151.068 35.76V37.24L136.188 37.28C136.548 40.76 138.388 42.52 141.628 42.52C144.308 42.52 146.068 41.48 146.628 39.6H151.148C150.308 43.92 146.708 46.52 141.548 46.52ZM141.428 29.64C138.548 29.64 136.788 31.2 136.308 34.16H146.228C146.228 31.44 144.348 29.64 141.428 29.64ZM159.853 46H154.973V26.24H159.493L159.893 28.8C161.133 26.8 163.533 25.64 166.213 25.64C171.173 25.64 173.733 28.72 173.733 33.84V46H168.853V35C168.853 31.68 167.213 30.08 164.693 30.08C161.693 30.08 159.853 32.16 159.853 35.36V46ZM185.248 46H180.368V30.32H176.568V26.24H180.368V20.08H185.248V26.24H189.088V30.32H185.248V46ZM201.943 24.92C201.943 19.8 206.183 16.24 212.343 16.24C218.263 16.24 222.023 19.52 222.183 24.8H217.063C216.943 22.28 215.143 20.8 212.263 20.8C209.103 20.8 207.063 22.32 207.063 24.76C207.063 26.84 208.183 28 210.623 28.56L215.223 29.56C220.223 30.64 222.663 33.2 222.663 37.56C222.663 43 218.423 46.52 211.983 46.52C205.743 46.52 201.663 43.2 201.543 37.96H206.663C206.703 40.44 208.703 41.92 211.983 41.92C215.383 41.92 217.543 40.44 217.543 38C217.543 36.04 216.543 34.88 214.143 34.36L209.503 33.32C204.543 32.24 201.943 29.4 201.943 24.92ZM229.015 22.28C227.335 22.28 226.015 20.96 226.015 19.32C226.015 17.68 227.335 16.4 229.015 16.4C230.615 16.4 231.935 17.68 231.935 19.32C231.935 20.96 230.615 22.28 229.015 22.28ZM226.575 46V26.24H231.455V46H226.575ZM235.377 35.68C235.377 29.92 239.137 25.6 244.777 25.6C247.737 25.6 250.057 26.84 251.217 28.96L251.497 26.24H256.017V45C256.017 51.6 252.057 55.72 245.657 55.72C239.977 55.72 236.097 52.48 235.497 47.2H240.377C240.697 49.76 242.657 51.28 245.657 51.28C249.017 51.28 251.177 49.16 251.177 45.88V42.6C249.937 44.44 247.497 45.6 244.657 45.6C239.057 45.6 235.377 41.4 235.377 35.68ZM240.297 35.56C240.297 38.88 242.417 41.36 245.617 41.36C248.977 41.36 251.057 39 251.057 35.56C251.057 32.2 249.017 29.88 245.617 29.88C242.377 29.88 240.297 32.32 240.297 35.56ZM265.947 46H261.067V26.24H265.587L265.987 28.8C267.227 26.8 269.627 25.64 272.307 25.64C277.267 25.64 279.827 28.72 279.827 33.84V46H274.947V35C274.947 31.68 273.307 30.08 270.787 30.08C267.787 30.08 265.947 32.16 265.947 35.36V46ZM290.502 46.52C286.302 46.52 283.742 44.08 283.742 40.36C283.742 36.72 286.382 34.44 291.062 34.08L296.982 33.64V33.2C296.982 30.52 295.382 29.44 292.902 29.44C290.022 29.44 288.422 30.64 288.422 32.72H284.262C284.262 28.44 287.782 25.64 293.142 25.64C298.462 25.64 301.742 28.52 301.742 34V46H297.462L297.102 43.08C296.262 45.12 293.582 46.52 290.502 46.52ZM292.102 42.84C295.102 42.84 297.022 41.04 297.022 38V36.96L292.902 37.28C289.862 37.56 288.702 38.56 288.702 40.16C288.702 41.96 289.902 42.84 292.102 42.84ZM311.456 46H306.616V16.24H311.456V46Z" fill="black"/>
</svg>
