<svg width="245" height="25" viewBox="0 0 245 25" fill="none" xmlns="http://www.w3.org/2000/svg">
<path d="M144.44 0V8.00658H136.563C136.53 7.98994 136.499 7.9733 136.468 7.95459C136.453 7.94835 136.216 7.81317 136.203 7.80485C134.759 7.00004 133.644 6.15571 132.433 5.04519C132.069 4.71453 131.717 4.37138 131.38 4.01369C130.246 2.82414 129.251 1.42663 128.417 0H144.44Z" fill="#D6D6D6"/>
<path d="M136.579 7.98193V15.9885H136.569V15.9989C136.569 17.4567 136.18 18.8251 135.499 20.0022C134.8 21.2125 133.793 22.2232 132.584 22.9282C131.404 23.6166 130.031 24.0117 128.568 24.0159V15.8076C129.371 14.4309 130.328 13.1519 131.413 11.9956C131.787 11.5943 132.178 11.2074 132.584 10.8373C132.95 10.5004 133.329 10.178 133.718 9.87024C134.6 9.16732 135.591 8.5372 136.579 7.98193Z" fill="#D6D6D6"/>
<path d="M128.491 0H120.458V8.02738H128.491V0Z" fill="#D6D6D6"/>
<path d="M163.874 13.698C163.874 11.6537 162.979 10.7803 160.338 10.7803C158.312 10.7803 157.24 11.4562 156.824 12.785L158.83 13.0429C158.948 12.7642 159.167 12.5272 159.446 12.367C159.725 12.209 160.041 12.1487 160.359 12.1882C161.512 12.1882 161.77 12.4669 161.77 13.0616C160.936 13.359 160.062 13.5774 159.188 13.7167C157.361 14.0141 156.605 14.7295 156.605 15.919C156.605 16.1977 156.666 16.4556 156.763 16.7135C156.861 16.9713 157.042 17.1897 157.261 17.3893C157.479 17.5682 157.719 17.7262 157.995 17.8053C158.274 17.9051 158.572 17.9238 158.849 17.9051C159.425 17.9446 160.001 17.8448 160.517 17.6264C161.033 17.4081 161.51 17.0712 161.847 16.6532C161.868 17.0296 161.987 17.5869 162.184 17.9238H164.211C163.972 17.4663 163.853 16.7717 163.874 16.2767V13.6959V13.698ZM161.889 14.611C161.868 14.8688 161.81 15.108 161.71 15.3451C161.591 15.5842 161.431 15.7818 161.233 15.9606C161.036 16.1395 160.796 16.258 160.538 16.3578C160.28 16.4369 160.022 16.4764 159.743 16.4764C158.948 16.4764 158.632 16.2788 158.632 15.8213C158.632 15.4449 159.048 15.0664 160.062 14.8688C160.696 14.769 161.333 14.5714 161.889 14.2741V14.611Z" fill="#D6D6D6"/>
<path d="M173.21 16.2767C172.158 16.2767 171.383 15.84 171.383 14.9479H177.143V14.4321C177.143 12.3275 176.072 10.7803 173.013 10.7803C170.47 10.7803 169.04 12.2485 169.04 14.4716C169.04 16.5159 170.609 17.9259 173.271 17.9259C175.377 17.9259 176.29 17.4684 177.064 16.2393L175.079 15.6237C174.84 15.8629 174.563 16.0397 174.226 16.1603C173.928 16.2788 173.57 16.3183 173.213 16.2788L173.21 16.2767ZM173.21 12.1674C173.429 12.1674 173.668 12.1882 173.866 12.2672C174.084 12.3462 174.263 12.4461 174.422 12.5854C174.58 12.7247 174.719 12.8828 174.798 13.0616C174.877 13.2405 174.938 13.438 174.938 13.6377H171.323C171.323 13.4401 171.383 13.2218 171.463 13.0429C171.562 12.8453 171.702 12.6852 171.879 12.5459C172.058 12.4065 172.255 12.3067 172.474 12.2485C172.692 12.1903 172.932 12.1695 173.169 12.1882H173.208V12.1674H173.21Z" fill="#D6D6D6"/>
<path d="M203.754 16.2767C202.761 16.2767 202.046 15.84 202.046 14.9479H207.468V14.4321C207.468 12.3275 206.476 10.7803 203.596 10.7803C201.213 10.7803 199.842 12.2485 199.842 14.4716C199.842 16.5159 201.292 17.9259 203.833 17.9259C205.799 17.9259 206.692 17.4684 207.408 16.2393L205.541 15.6237C205.323 15.8629 205.044 16.0397 204.747 16.1603C204.409 16.2788 204.07 16.3183 203.754 16.2788V16.2767ZM203.714 12.1674C203.933 12.1466 204.131 12.1882 204.349 12.2672C204.568 12.3462 204.726 12.4461 204.886 12.5854C205.044 12.7247 205.165 12.8828 205.244 13.0616C205.323 13.2405 205.383 13.438 205.383 13.6377H201.987C201.987 13.4401 202.027 13.2218 202.127 13.0429C202.227 12.8641 202.345 12.6852 202.503 12.5459C202.662 12.4065 202.861 12.3067 203.059 12.2277C203.277 12.1882 203.496 12.1487 203.714 12.1674Z" fill="#D6D6D6"/>
<path d="M226.325 16.2767C225.333 16.2767 224.617 15.84 224.617 14.9479H230.04V14.4321C230.04 12.3275 229.026 10.7803 226.167 10.7803C223.784 10.7803 222.413 12.2485 222.413 14.4716C222.413 16.5159 223.903 17.9259 226.404 17.9259C228.371 17.9259 229.263 17.4684 229.979 16.2393L228.113 15.6237C227.894 15.8629 227.615 16.0397 227.318 16.1603C226.981 16.2788 226.641 16.3183 226.325 16.2788V16.2767ZM226.286 12.1674C226.504 12.1466 226.702 12.1882 226.92 12.2672C227.118 12.3275 227.297 12.4461 227.457 12.5854C227.615 12.7247 227.736 12.8828 227.815 13.0616C227.894 13.2405 227.954 13.438 227.954 13.6377H224.558C224.558 13.4401 224.598 13.2218 224.698 13.0429C224.777 12.8641 224.916 12.6852 225.075 12.5459C225.233 12.4065 225.432 12.3067 225.63 12.2277C225.849 12.1882 226.067 12.1487 226.286 12.1674Z" fill="#D6D6D6"/>
<path d="M219.66 13.7957C219.065 13.6564 218.507 13.5379 217.991 13.438C217.236 13.28 217.038 13.0803 217.038 12.783C217.038 12.4856 217.357 12.1487 217.991 12.1487C218.249 12.1092 218.507 12.1695 218.707 12.288C218.926 12.4065 219.084 12.6062 219.165 12.8246L221.429 12.627C220.892 11.2773 219.979 10.7803 217.875 10.7803C215.771 10.7803 214.737 11.5934 214.737 12.8641C214.737 13.6772 215.313 14.3323 216.406 14.6297C216.903 14.7482 217.498 14.8875 217.996 15.0061C219.227 15.2452 219.465 15.4636 219.465 15.761C219.465 16.1977 219.128 16.4764 218.254 16.4764C217.38 16.4764 216.843 16.1395 216.724 15.5634L214.5 15.8026C214.957 17.4704 215.79 17.9467 218.393 17.9467C220.696 17.9467 221.65 17.1523 221.65 15.8629C221.67 14.8501 221.312 14.1763 219.664 13.7978L219.66 13.7957Z" fill="#D6D6D6"/>
<path d="M156.547 7.91992H148.536V9.92677H151.536V17.8918H153.544V9.92677H156.547V7.91992Z" fill="#D6D6D6"/>
<path d="M167.545 7.91992H165.537V17.8918H167.545V7.91992Z" fill="#D6D6D6"/>
<path d="M183.157 10.7713C182.271 10.7526 181.139 10.8274 180.656 11.4679V9.8999H178.648V17.842H180.527H180.656V13.9282C180.656 12.9549 181.37 12.2603 182.244 12.2603C183.118 12.2603 183.555 12.8155 183.555 13.8283V17.8774L185.569 17.842V13.4561C185.636 11.705 184.866 10.8129 183.157 10.7734V10.7713Z" fill="#D6D6D6"/>
<path d="M197.58 10.7803L196.107 15.0934L194.631 10.7803H192.623L195.066 17.9259H195.137H197.074H197.145L199.588 10.7803H197.58Z" fill="#D6D6D6"/>
<path d="M190.9 16.2282C190.345 16.2282 190.047 15.9308 190.047 15.1364V12.9653H191.416V10.9584H190.037V9.8999H188.029V10.9584H186.649V12.9653H188.02V15.6334C188.02 17.2223 188.715 17.8961 190.185 17.8961C190.622 17.8961 191.059 17.8358 191.475 17.6985V16.0515C191.317 16.17 191.117 16.2303 190.898 16.2303L190.9 16.2282Z" fill="#D6D6D6"/>
<path d="M210.891 11.2684V10.7549H208.678V17.93H210.891V14.403C210.891 13.1773 211.545 12.4263 212.459 12.4263C212.887 12.4305 213.314 12.4775 213.733 12.5668L214.068 10.9293C213.689 10.7187 213.262 10.599 212.824 10.5805C212.467 10.5322 212.104 10.5699 211.766 10.69C211.428 10.8102 211.127 11.009 210.891 11.2684Z" fill="#D6D6D6"/>
<path d="M241.834 9.18262H244.248L240.321 13.8046L244.528 18.5695H242.114L239.119 15.2024L236.29 18.5695H233.917L237.927 13.8046L233.917 9.18262H236.29L239.119 12.4068L241.834 9.18262Z" fill="#D6D6D6"/>
<path d="M97.3964 22.4223L97.6498 20.8384H98.9169C99.7405 20.8384 100.543 20.6484 101.198 19.3813L101.81 18.2198L99.4659 7.4917H101.388L103.035 15.8334L107.343 7.4917H109.413L102.634 20.1415C101.81 21.6831 100.754 22.6123 99.0225 22.6123C98.3678 22.6123 97.861 22.549 97.3964 22.4223Z" fill="#D6D6D6"/>
<path d="M88.7952 17.8184H87.0424L89.4921 2.27539H91.3927L90.2946 9.30776C91.1815 7.93508 92.4275 7.21706 94.0325 7.21706C96.4611 7.21706 98.1717 9.09658 98.1717 11.7997C98.1717 15.432 95.8275 18.0718 92.7232 18.0718C91.0548 18.0718 89.7033 17.2482 89.2175 15.9178L88.7952 17.8184ZM89.7244 13.4469C89.7244 15.2842 90.7169 16.3824 92.4698 16.3824C94.6238 16.3824 96.271 14.4395 96.271 11.9053C96.271 10.0891 95.2151 8.90651 93.5468 8.90651C91.3927 8.90651 89.7244 10.8916 89.7244 13.4469Z" fill="#D6D6D6"/>
<path d="M73.1795 18.0718C70.772 18.0718 69.0403 16.1923 69.0403 13.4892C69.0403 9.85683 71.3844 7.21706 74.5099 7.21706C76.1782 7.21706 77.5087 8.04067 77.9944 9.37112L79.0926 2.27539H80.9932L78.5435 17.8184H76.8118L76.9385 15.9811C76.0515 17.3538 74.8056 18.0718 73.1795 18.0718ZM73.6863 16.3824C75.8192 16.3824 77.5087 14.3973 77.5087 11.8419C77.5087 10.0047 76.495 8.90651 74.7422 8.90651C72.6093 8.90651 70.962 10.8494 70.962 13.3836C70.962 15.1997 72.018 16.3824 73.6863 16.3824Z" fill="#D6D6D6"/>
<path d="M62.3611 18.0721C59.6157 18.0721 57.8207 16.2559 57.8207 13.4683C57.8207 9.94154 60.2704 7.21729 63.4592 7.21729C66.3947 7.21729 68.1053 9.32911 67.6407 12.2857L67.5351 13.0037L59.6791 13.0248C59.6791 13.1304 59.6791 13.236 59.6791 13.3627C59.6791 15.2844 60.7139 16.4671 62.4245 16.4671C63.776 16.4671 64.9164 15.7913 65.381 14.6298H67.2816C66.5847 16.7416 64.6207 18.0721 62.3611 18.0721ZM63.3748 8.82227C61.7487 8.82227 60.4182 10.0049 59.9114 11.7366H65.8245C66.099 9.98377 65.0853 8.82227 63.3748 8.82227Z" fill="#D6D6D6"/>
<path d="M57.9306 7.40747L57.656 9.16028H56.7902C54.9951 9.16028 53.6224 10.3007 53.3268 12.2858L52.4398 17.8188H50.5392L52.1864 7.49194H53.9181L53.7914 9.11805C54.4038 8.0199 55.5231 7.28076 56.8747 7.28076C57.2337 7.28076 57.5927 7.323 57.9306 7.40747Z" fill="#D6D6D6"/>
<path d="M43.9446 18.0721C41.1992 18.0721 39.4042 16.2559 39.4042 13.4683C39.4042 9.94154 41.8539 7.21729 45.0427 7.21729C47.9782 7.21729 49.6888 9.32911 49.2242 12.2857L49.1186 13.0037L41.2626 13.0248C41.2626 13.1304 41.2626 13.236 41.2626 13.3627C41.2626 15.2844 42.2974 16.4671 44.0079 16.4671C45.3595 16.4671 46.4999 15.7913 46.9645 14.6298H48.8651C48.1682 16.7416 46.2042 18.0721 43.9446 18.0721ZM44.9583 8.82227C43.3322 8.82227 42.0017 10.0049 41.4949 11.7366H47.408C47.6825 9.98377 46.6688 8.82227 44.9583 8.82227Z" fill="#D6D6D6"/>
<path d="M26.0686 17.8185L24.3792 7.4917H26.2798L27.1034 12.9824C27.209 13.6371 27.2935 14.4818 27.3779 15.3899C27.6736 14.5874 27.9481 13.9116 28.3916 12.9824L30.9892 7.4917H32.932L33.7556 12.9824C33.819 13.4893 33.9457 14.693 34.0091 15.3688C34.347 14.5241 34.7693 13.5526 35.0227 12.9824L37.6203 7.4917H39.6687L34.6004 17.8185H32.8264L31.9184 12.1799C31.7916 11.3986 31.6649 10.2582 31.6438 9.70911C31.3693 10.3849 30.9469 11.3775 30.5879 12.2011L27.9692 17.8185H26.0686Z" fill="#D6D6D6"/>
<path d="M12.429 13.3838C12.429 9.96265 15.0899 7.21729 18.4054 7.21729C21.2141 7.21729 23.1148 9.11793 23.1148 11.9055C23.1148 15.3267 20.475 18.0721 17.1594 18.0721C14.3507 18.0721 12.429 16.1714 12.429 13.3838ZM14.3718 13.2571C14.3718 15.1789 15.4911 16.3826 17.3073 16.3826C19.4402 16.3826 21.193 14.4397 21.193 12.0322C21.193 10.1316 20.0738 8.90674 18.2576 8.90674C16.1246 8.90674 14.3718 10.8496 14.3718 13.2571Z" fill="#D6D6D6"/>
<path d="M6.52553 12.3698H2.85096L1.98511 17.8183H0L2.40748 2.5498H7.79263C10.4535 2.5498 12.2697 4.2815 12.2697 6.85792C12.2697 10.1524 9.9678 12.3698 6.52553 12.3698ZM7.32802 4.34485H4.11805L3.1255 10.5747H6.41994C8.78518 10.5747 10.2212 9.24428 10.2212 7.00575C10.2212 5.37965 9.10196 4.34485 7.32802 4.34485Z" fill="#D6D6D6"/>
</svg>
